<?xml version="1.0" standalone="no"?>
<!DOCTYPE svg PUBLIC "-//W3C//DTD SVG 20010904//EN"
 "http://www.w3.org/TR/2001/REC-SVG-20010904/DTD/svg10.dtd">
<svg version="1.0" xmlns="http://www.w3.org/2000/svg"
 width="1000.000000pt" height="420.000000pt" viewBox="0 0 1000.000000 420.000000"
 preserveAspectRatio="xMidYMid meet">

<g transform="translate(0.000000,420.000000) scale(0.100000,-0.100000)"
fill="#000000" stroke="none">
<path d="M0 2100 l0 -2100 5000 0 5000 0 0 2100 0 2100 -5000 0 -5000 0 0
-2100z m4310 1515 c7 -9 8 -15 2 -15 -5 0 -12 7 -16 15 -3 8 -4 15 -2 15 2 0
9 -7 16 -15z m563 -165 c105 -16 381 -59 612 -95 437 -69 595 -93 805 -125 69
-11 253 -39 410 -64 157 -25 453 -71 659 -103 233 -36 375 -62 378 -70 3 -6
-6 -40 -18 -74 l-23 -62 -145 6 c-80 3 -175 13 -210 22 -35 8 -69 14 -75 12
-23 -8 205 -48 311 -55 l112 -7 -38 -100 -38 -100 -44 3 c-24 1 -98 11 -164
22 -66 11 -192 31 -280 45 -273 43 -338 55 -343 60 -3 3 -5 19 -4 37 4 110
-61 188 -129 154 -26 -13 -41 -12 -147 8 -260 51 -522 93 -780 126 -158 21
-164 21 -200 3 -43 -21 -67 -65 -88 -162 -18 -87 -18 -175 1 -211 21 -41 65
-61 180 -81 55 -9 152 -26 215 -38 181 -31 422 -68 575 -86 120 -15 144 -21
166 -41 59 -55 130 -15 164 91 16 52 19 56 44 51 14 -3 87 -15 161 -26 74 -12
176 -28 225 -36 50 -8 156 -25 237 -37 81 -13 150 -25 152 -28 7 -7 -87 -258
-97 -259 -4 -1 -40 15 -80 35 -105 52 -184 63 -293 42 -111 -21 -209 -67 -312
-145 l-83 -63 -77 21 c-42 12 -126 37 -187 55 -60 18 -153 45 -205 60 -52 15
-131 38 -175 50 -44 13 -174 51 -290 85 -115 34 -232 68 -260 76 -27 7 -101
28 -164 46 l-114 33 -11 45 c-18 70 -82 180 -133 227 -90 85 -216 125 -325
104 -60 -12 -269 -91 -350 -132 -37 -19 -47 -40 -30 -65 4 -7 54 -26 112 -43
58 -18 141 -43 186 -57 45 -13 88 -32 96 -42 21 -23 68 -158 68 -193 0 -21
-12 -37 -52 -69 -86 -68 -75 -68 -276 -11 -169 47 -183 49 -209 36 -15 -8 -34
-15 -40 -15 -7 0 -15 -11 -19 -24 -4 -19 11 -48 76 -140 121 -172 193 -226
327 -249 112 -20 237 20 361 113 l51 39 118 -34 c163 -46 465 -134 668 -193
421 -123 695 -202 698 -202 2 0 9 -25 16 -55 54 -242 218 -413 428 -448 38 -6
69 -12 71 -13 2 -1 -8 -30 -22 -65 -15 -34 -26 -68 -26 -75 0 -7 -4 -16 -10
-19 -5 -3 -92 21 -193 55 l-184 61 -42 -27 c-38 -25 -41 -31 -41 -71 0 -58
-17 -55 -22 4 -4 50 4 63 52 88 38 20 43 40 21 90 -23 52 -44 60 -101 40 -46
-16 -46 -16 -98 31 -22 19 -23 24 -12 63 6 23 8 50 5 61 -7 21 -86 55 -108 47
-8 -3 -25 -25 -38 -49 -23 -41 -27 -43 -75 -46 -49 -3 -51 -2 -78 38 -16 25
-34 40 -47 40 -32 0 -97 -38 -101 -59 -3 -18 -27 -12 -288 76 l-286 96 4 32
c4 34 -17 65 -45 65 -13 0 -13 -3 -3 -15 10 -12 10 -25 -1 -62 -18 -67 -15
-79 30 -125 36 -36 44 -39 78 -34 21 3 53 10 72 17 32 11 36 10 55 -12 12 -14
28 -44 35 -67 13 -39 13 -44 -5 -60 -10 -9 -31 -23 -46 -31 -56 -29 -63 -42
-60 -107 l4 -61 64 -37 c42 -24 64 -43 64 -55 0 -29 -40 -112 -57 -118 -8 -3
-42 2 -75 11 l-61 17 -43 -43 c-49 -48 -51 -57 -28 -135 15 -50 15 -56 -1 -73
-24 -27 -103 -52 -125 -40 -10 5 -28 30 -40 54 -11 25 -27 47 -33 49 -7 2 -39
2 -72 -1 -58 -4 -95 -23 -95 -46 0 -7 -12 -27 -28 -45 l-27 -33 -60 24 -60 25
2 74 2 74 -50 44 -49 44 -59 -13 c-33 -7 -64 -9 -71 -5 -19 12 -52 97 -46 120
3 12 24 31 46 44 l41 23 -3 80 c-3 68 -6 83 -22 92 -11 6 -29 19 -40 28 -11
10 -23 18 -28 18 -15 0 -8 47 12 94 23 50 36 55 112 37 35 -8 38 -6 89 45 50
50 52 54 44 91 -17 86 -14 96 35 120 63 31 87 29 108 -8 41 -74 49 -78 188
-70 6 1 15 11 21 23 9 22 4 25 -189 89 l-199 67 -247 -44 c-385 -69 -733 -132
-782 -143 -25 -5 -47 -8 -49 -5 -5 4 39 61 68 89 54 51 291 329 288 338 -5 15
-258 98 -279 91 -16 -5 -18 2 -18 75 0 44 -4 83 -10 86 -6 4 -10 -26 -10 -83
l0 -90 -60 -20 -60 -21 0 65 c0 36 -4 64 -10 64 -6 0 -10 -29 -10 -68 l0 -67
-49 -18 c-62 -22 -61 -22 -61 10 0 32 -17 20 -22 -16 -3 -23 -43 -48 -52 -32
-8 12 39 106 85 171 52 75 118 126 188 147 47 13 62 14 110 2 31 -7 60 -13 64
-14 5 0 41 81 81 180 194 477 272 659 280 647 4 -6 25 -17 48 -24 39 -12 41
-11 67 19 17 20 39 33 63 37 34 6 38 4 52 -22 20 -38 34 -43 78 -25 43 17 51
32 37 73 -9 25 -7 34 13 59 21 26 27 28 70 24 47 -6 48 -5 63 30 21 51 20 54
-25 82 -34 21 -40 30 -40 59 0 28 6 38 36 55 31 19 36 26 32 51 -3 17 -3 30
-1 30 2 0 90 -13 196 -30z m-1546 -31 c83 -31 85 -34 78 -93 -4 -28 -9 -58
-11 -67 -3 -11 18 -43 53 -83 l58 -66 73 1 c40 1 77 -2 83 -8 14 -14 40 -124
37 -158 -2 -21 -10 -33 -27 -40 -96 -40 -105 -47 -128 -115 -29 -88 -28 -100
12 -160 19 -29 35 -59 34 -69 -1 -23 -115 -121 -140 -121 -12 0 -41 18 -65 40
-48 44 -59 46 -138 26 -80 -21 -94 -32 -120 -91 -14 -30 -32 -56 -43 -59 -21
-7 -149 29 -171 47 -14 11 -13 28 4 122 5 27 -2 39 -59 98 l-63 69 -71 -7
c-49 -5 -73 -4 -78 4 -3 7 -15 46 -25 87 -21 88 -15 100 60 129 54 20 80 42
80 66 0 11 8 41 19 68 21 55 19 61 -33 137 -14 21 -26 44 -26 50 0 20 118 124
141 124 12 0 41 -16 65 -36 51 -41 58 -42 144 -24 78 16 87 22 112 80 34 80
48 84 145 49z m1046 -30 c29 -16 37 -28 37 -61 0 -60 -74 -89 -118 -48 -29 27
-28 65 3 95 27 28 45 31 78 14z m3505 -784 c28 -13 52 -29 52 -35 0 -14 -8
-13 -73 9 -41 14 -65 17 -85 11 -90 -28 -113 -16 -34 18 61 27 76 27 140 -3z
m-3404 -510 c102 -72 215 -96 335 -71 79 17 91 15 72 -8 -22 -27 -96 -56 -157
-62 -118 -12 -254 51 -300 138 -26 50 -16 50 50 3z m996 -30 c315 -78 833
-236 947 -287 67 -31 32 -34 -88 -8 -273 59 -976 270 -1066 320 l-38 21 50 -5
c28 -2 115 -21 195 -41z m1785 -174 c47 -12 70 -22 69 -32 -1 -8 -32 -96 -69
-196 -63 -169 -70 -183 -92 -183 -36 0 -81 30 -97 65 -31 67 -69 203 -63 226
8 31 141 138 172 138 6 0 42 -8 80 -18z m-559 -393 c61 -121 146 -208 266
-274 37 -21 68 -42 68 -47 0 -19 -101 2 -161 34 -109 58 -205 189 -217 295 -6
60 11 57 44 -8z m-2636 -244 c0 -8 -4 -12 -10 -9 -5 3 -10 10 -10 16 0 5 5 9
10 9 6 0 10 -7 10 -16z m-60 -12 c0 -5 11 -14 24 -22 31 -16 27 -41 -20 -130
-51 -97 -113 -164 -189 -201 -57 -28 -72 -31 -119 -26 -94 9 -184 69 -225 147
-36 70 -27 77 37 28 28 -21 42 -40 42 -55 0 -13 5 -23 10 -23 6 0 10 17 10 38
0 30 -6 41 -30 57 -16 11 -30 22 -30 25 0 3 22 13 50 21 48 15 50 15 77 -7 15
-13 34 -23 41 -24 8 0 12 -23 12 -80 0 -47 4 -80 10 -80 6 0 10 36 10 89 l0
89 -32 20 -32 20 38 16 c51 21 60 20 106 -10 l40 -27 0 -73 c0 -43 4 -74 10
-74 6 0 10 36 10 88 l0 87 -32 18 -33 19 25 14 c37 20 66 17 110 -12 34 -22
40 -33 42 -63 1 -31 2 -28 7 14 5 38 3 52 -9 59 -8 5 -23 16 -33 25 -17 14
-16 16 20 27 49 15 53 16 53 6z m2227 -209 c58 -38 47 -135 -19 -166 -40 -19
-74 -13 -112 20 -20 18 -26 32 -26 66 0 52 21 84 63 96 35 10 61 6 94 -16z
m220 -85 c-3 -8 -6 -5 -6 6 -1 11 2 17 5 13 3 -3 4 -12 1 -19z m-550 -50 c-3
-8 -6 -5 -6 6 -1 11 2 17 5 13 3 -3 4 -12 1 -19z m729 -106 c-18 -52 -44 -70
-75 -52 -13 8 -12 9 6 10 25 0 53 52 53 98 0 24 1 25 16 10 15 -15 15 -20 0
-66z m-136 -39 c-15 -6 -28 -20 -55 -59 -14 -18 -13 -26 0 -64 8 -24 13 -51
10 -60 -7 -21 -76 -53 -101 -48 -14 3 -6 10 29 25 52 24 55 33 35 108 -12 43
-11 46 17 75 18 19 38 30 54 29 16 0 20 -3 11 -6z m-584 -42 c-3 -4 -20 -11
-37 -15 -39 -7 -64 5 -29 15 37 10 72 10 66 0z m339 -101 c4 -6 -8 -10 -30
-10 -32 0 -39 -5 -63 -45 -15 -24 -33 -47 -40 -50 -19 -7 -38 5 -22 15 7 4 22
25 34 46 18 32 28 40 61 45 22 3 43 7 47 8 4 0 10 -3 13 -9z"/>
<path d="M7205 2910 c11 -5 27 -9 35 -9 9 0 8 4 -5 9 -11 5 -27 9 -35 9 -9 0
-8 -4 5 -9z"/>
<path d="M4965 1421 c-107 -28 -199 -104 -243 -200 -20 -45 -26 -72 -26 -136
-1 -71 3 -88 32 -147 40 -82 111 -149 190 -178 77 -29 204 -25 275 9 62 29
128 95 163 163 25 47 28 64 28 148 0 84 -3 101 -28 148 -59 115 -171 190 -294
197 -37 2 -80 1 -97 -4z m210 -51 c111 -53 175 -146 183 -267 2 -40 1 -80 -3
-90 -4 -10 -9 -25 -10 -34 -3 -32 -56 -109 -98 -141 -89 -71 -189 -93 -289
-64 -251 74 -322 379 -127 549 30 26 59 47 65 47 7 0 25 7 40 15 18 9 57 15
103 15 61 0 84 -5 136 -30z"/>
<path d="M4958 1366 c-57 -15 -125 -61 -148 -98 -9 -16 -20 -26 -23 -23 -4 3
-5 2 -3 -1 2 -3 -5 -27 -17 -52 -30 -68 -27 -167 8 -238 32 -65 100 -127 162
-148 55 -19 156 -21 204 -5 32 11 120 74 127 92 2 4 9 13 16 20 29 31 51 103
51 172 0 61 -4 78 -34 130 -49 87 -92 123 -180 149 -64 19 -99 19 -163 2z"/>
<path d="M3088 3233 c7 -3 16 -2 19 1 4 3 -2 6 -13 5 -11 0 -14 -3 -6 -6z"/>
<path d="M3208 3233 c7 -3 16 -2 19 1 4 3 -2 6 -13 5 -11 0 -14 -3 -6 -6z"/>
<path d="M2990 3200 c-9 -6 -10 -10 -3 -10 6 0 15 5 18 10 8 12 4 12 -15 0z"/>
<path d="M3124 2980 c-30 -12 -64 -58 -64 -86 0 -13 13 -38 28 -55 58 -64 152
-27 152 60 0 60 -63 104 -116 81z"/>
<path d="M2812 2910 c0 -19 2 -27 5 -17 2 9 2 25 0 35 -3 9 -5 1 -5 -18z"/>
<path d="M3493 2905 c0 -22 2 -30 4 -17 2 12 2 30 0 40 -3 9 -5 -1 -4 -23z"/>
<path d="M3248 2573 c7 -3 16 -2 19 1 4 3 -2 6 -13 5 -11 0 -14 -3 -6 -6z"/>
<path d="M3208 2563 c7 -3 16 -2 19 1 4 3 -2 6 -13 5 -11 0 -14 -3 -6 -6z"/>
<path d="M6132 988 c-21 -21 -14 -57 14 -70 31 -14 57 -1 62 31 7 42 -46 69
-76 39z"/>
</g>
</svg>
